<svg id="Layer_1" data-name="Layer 1" xmlns="http://www.w3.org/2000/svg" viewBox="0 0 571.53 879"><defs><style>.cls-1{fill:#f4e5cd;}.cls-2{fill:#a08e7f;}.cls-3{fill:#eedec7;}.cls-4{fill:#d9c8b4;}.cls-5{fill:#b7b6ab;}.cls-6{fill:#fcfcfc;}.cls-7{fill:#dcccb7;}.cls-8{fill:#f3e4cc;}.cls-9{fill:#d4c4af;}.cls-10{fill:#f2e5d1;}.cls-11{fill:#f9f5e8;}.cls-12{fill:#f6e7cf;}.cls-13{fill:#56413b;}.cls-14{fill:#917e72;}.cls-15{fill:#77645a;}.cls-16{fill:#d5c5b0;}.cls-17{fill:#c0af9d;}.cls-18{fill:#968477;}.cls-19{fill:#ddcdb8;}.cls-20{fill:#dfcfba;}.cls-21{fill:#756258;}.cls-22{fill:#edddc6;}.cls-23{fill:#d4c3af;}.cls-24{fill:#c7b6a4;}.cls-25{fill:#bcab9a;}.cls-26{fill:#a69485;}.cls-27{fill:#54524d;}.cls-28{fill:#d8cead;}.cls-29{fill:#826f64;}.cls-30{fill:#cebfae;}.cls-31{fill:#c9baab;}.cls-32{fill:#3d3f3f;}</style></defs><path class="cls-1" d="M1025.63,753.47c-33.48,108.42,70.62,238.35,150,231.25,62.31-5.57,107.36-95.33,115.62-164.36,6.58-54.91-3.22-154.29-69.75-182.51C1150.92,607.91,1050.61,672.56,1025.63,753.47Z" transform="translate(-721.48 -106)"/><path class="cls-2" d="M1210.34,655.15c55.87,31.72,53.3,111.39,52.06,149.67-.92,28.47-4.05,125.37-63.44,147.22-47.68,17.53-103.48-23.63-130.14-56.94a172.49,172.49,0,0,1-20.47-32.77c-27.66-57.41-28.6-134.16,18.84-180.33C1102.11,648,1164.64,629.2,1210.34,655.15Z" transform="translate(-721.48 -106)"/><path class="cls-3" d="M941,843l134.91-138.62,168.81-33.56,25.11-8.37s12-4.14,0-19.41-38.27-58.32-76.53-61.91-30.93,6.55-30.93,6.55l-6.41,3.2-57.68-9.61L1093.84,543s49.92-46.14,52.19-42.45-37.94-75.68-37.94-75.68-14.25-31.38-65-22.16S897.25,413.77,836.34,491.3c0,0-10.16,4.61,0,41.53S941,843,941,843Z" transform="translate(-721.48 -106)"/><path class="cls-4" d="M1089.58,578.81s-2.25-32.48,12.69-49.85,41.19-27.78,41.19-27.78-18,62.77,35.4,87.76C1178.86,588.94,1106.25,601.8,1089.58,578.81Z" transform="translate(-721.48 -106)"/><path class="cls-3" d="M1274.61,651.43s.72,36.77-1.5,39-22.2-27.42-22.2-27.42Z" transform="translate(-721.48 -106)"/><path class="cls-5" d="M1144.3,500.53c-13.68,9-14.73,35.86-9.2,53.61,5.79,18.6,22.71,39.78,39.49,35.74,17.68-4.26,28.26-34.88,21.62-57.9C1188.83,506.43,1160.16,490.09,1144.3,500.53Z" transform="translate(-721.48 -106)"/><path class="cls-6" d="M1154.45,503.77c-15.14,7.55-18.52,44-3.72,63.71,7,9.28,20.62,18.37,31.9,13.57,14.72-6.27,19.46-33.69,11.69-52.5C1186.86,510.47,1166.73,497.65,1154.45,503.77Z" transform="translate(-721.48 -106)"/><path class="cls-7" d="M1159,510.79c-13.74,6.18-16.8,36-3.38,52.1,6.33,7.59,18.71,15,29,11.09,13.36-5.12,17.66-27.54,10.61-42.93C1188.37,516.27,1170.11,505.79,1159,510.79Z" transform="translate(-721.48 -106)"/><path class="cls-8" d="M1021.79,406s-41.67-43.74-40.52-59.81S1006,293.4,1006,293.4s23,78.07,31,86.1,19.4,21.61,19.4,21.61Z" transform="translate(-721.48 -106)"/><path class="cls-9" d="M912.82,229.47s-2.7,7.47,1.66,10.49,6.29,6.19,11.8,6.76,3.67-2.5,10.46-1.06,4.32,2.13,13,1.06,6.78-3.53,11.31-5.38,10.08-2.88,3.7-4.53-7.2,2.25-13-8-6.17-1.22-10.07-15.62-3.3-16.07-3.09-27.06,6.79-8.52,3.91-20.45,15-12.14-5.14-24.27S926,128.21,909.89,127.8a196.44,196.44,0,0,1-30.32-3.29s-18.52,5.25-21.81,8.33S847.27,146.62,847.27,152s-2.26,15.16-2.88,20.33-4.73,20.81-8,23.89-7.41,18.92-11.73,19.33-9.25,6.17-14.6,7.61-8.43,3.5-9.87,3.5,6.17,3.91,11.1,4.11,7.41-1,3.71,1.44-17.08-6.17-3.71,2.47,10.49,8.64,15.22,8.64,9,.41,3.3.82-18.93-2.05-5.76.42L837.19,247h0c-6.38.83-8.64.25-8.64.25s.82,3.46,5.76,3.46h7.82s-1.65,2.67-2.47,2.67-6.17,2.06,3.49,1.23,13.46-3.9,13.46-3.9L855.08,253s-8.43,2.06,2.47,0,6.32-.21,12-2.47-1.31,4.19,6.5-3.77,8.12-7.84,8.44-12.89-2.2-3,1.52-6.87S912.82,229.47,912.82,229.47Z" transform="translate(-721.48 -106)"/><path class="cls-8" d="M879.57,249.35l21.66,15.31,17.53-15.31s-3.45-5.52-4.28-9.39-1.66-10.49-1.66-10.49l-28-.69S882.88,248.24,879.57,249.35Z" transform="translate(-721.48 -106)"/><path class="cls-10" d="M861.51,179.28s-2.1-6.52-3.49-4.66-1.4,8.15-1.4,8.15S856.39,193,859.06,196s10.13,7.22,10.13,7.22,16.53,37.7,28.4,34.68,23.27-20,23.27-20,8.15-4.66,8.15-16.76,1.86-21.18,1.86-25.6-.7-8.85,0-11.41,2.8-22.58-10.24-22.35-39.8-9.31-46.32,0S861.51,179.28,861.51,179.28Z" transform="translate(-721.48 -106)"/><path class="cls-11" d="M849.31,266.43s13-10.38,20.25-12.11,10-5,10-5l21,12.23,18.14-12.23s4.74-2.22,5.78,0,.69,6,3.45,6.7,13.49,1.73,13.49,1.73,5.19-2.76,7.61-2.76,6.91-.35,18,5.18,30.78,21.44,32.51,23.86,6.38,9.34,6.38,9.34l-31,50,14,27.7,32.86,34.9L900.62,438.48s-8.24-18.15-9.62-20.08-20.06-36.15-23.51-42.72-20.06-40.1-20.06-40.1L822.89,346,798,302.73s45-30.08,49.1-30.43" transform="translate(-721.48 -106)"/><path class="cls-12" d="M792.08,797.58s.95,18.68,0,23.38-2.52,24.77-2.52,24.77v24.45s-1.25,21-1.56,22.58-9.72,21-9.72,21-12.23,16.93-12.23,20.07-7.21,21-7.21,21-1.88,13.75,4.39,17.53,23.83.34,27.59-6.87,12.85-24.77,12.85-26.65,9.41-21.64,9.41-26,.63-20.69,0-23.2-1.64-16.3.28-21.32,12.89-32.29,14.77-41.38,6.59-24.77,6.59-24.77S791.78,800.22,792.08,797.58Z" transform="translate(-721.48 -106)"/><path class="cls-13" d="M848.55,573.33s-17.17,48.83-19.63,54.18-7.8,43.48-11.14,48.17-11.38,38.13-11.38,38.13S795,733.21,795,739.23s-7.36,48.16-7.36,48.16l-4,11.38s37.46,31,51.51,6.12c0,0,7.36-35.56,7.36-49.61s24.08-73.58,24.08-73.58L880,663.64Z" transform="translate(-721.48 -106)"/><path class="cls-14" d="M809.15,891.21s.77.52,3.93-1.59,3.16,4.67,3.16,10.22-.31,18.19-3.55,25-17.11,40.7-19.57,43.16-14.19,8.94-17.58,8.94-14.21,1.46-17-1.54S749.65,964,754.89,955,766,922.3,772.15,918s10.63-13.67,10.63-13.67l-6.62,14.29s-11.1,25.58-9.56,28.36,2.16,5.24,8.63,4.62,20.33-11.1,21.42-14.18,11.57-29.9,12.8-33S809.15,891.21,809.15,891.21Z" transform="translate(-721.48 -106)"/><polygon class="cls-3" points="311.5 759.71 219.53 736.98 240.99 693.62 303.67 726.66 311.5 759.71"/><path class="cls-15" d="M1008.19,773.69s8.32-46,29.93-63.74,39.36-43.23,66.51-53.76,52.66-22.45,74.27-24.53l21.62-2.08s-26.94-27.15-28.71-27.15-79.53-4.8-82-13.32c0,0-36.14,15.53-52.76,33.27S970,715.49,1008.19,773.69Z" transform="translate(-721.48 -106)"/><path class="cls-15" d="M1172.73,590.18s40,31.65,43.86,34.42,28.82,5.5,33.81,5.8-28.26-31.85-28.26-31.85A104.19,104.19,0,0,0,1172.73,590.18Z" transform="translate(-721.48 -106)"/><path class="cls-15" d="M990,690.32s15-36.92,23.83-49.66,35.47-41.83,49.33-48.63l13.86-6.8s-37.79-53.89-47.72-86.25-22.12-78.93-22.12-78.93l-25.84,8.88s25,87.47,24.18,112.52C1004.94,560.13,1012.75,625.25,990,690.32Z" transform="translate(-721.48 -106)"/><path class="cls-16" d="M1018.8,421.55s-4,4-1.81,13.82,19.62,59.68,22.74,66.85,14.72,48.07,24.08,48.14,31.22,0,31.22,0,12.36-28,28.09-35.61,12-14.72,12-14.72S1121.78,480,1120,473.72s-11.6-31.25-14.72-35.24A53,53,0,0,0,1071,420.05C1051.77,418,1048.25,410,1018.8,421.55Z" transform="translate(-721.48 -106)"/><path class="cls-17" d="M879.19,646.3s6.69-8.18,13.38-15.9l6.69-7.73A34.75,34.75,0,0,1,904.1,618a2.47,2.47,0,0,1,.95-.52,2.81,2.81,0,0,1,1.87.6,14.24,14.24,0,0,0,7.76,1.6c9.2-.45,17.85-4.27,23.37-11.77,6.25-8.47,6.25-5,12.49-18.09l4.08-8.58a10,10,0,0,1,7.29-5.56l3.35-.58c9.45-1.62,15.72-8.57,24.09-13.12,2-1.08,8.1-4.72,9.61-6.4,4.65-5.18,3.23-9.36,3.42-15.88.25-8.76-1-16-4.84-23.8-7.27-14.73-13.11-30-18.9-45.34-4.91-12.93-2.68-25-14.72-32.12s-29.88,0-41,4.92-42.81,21-55.29,34.78-25,13.78-25.42,31.42S879.19,646.3,879.19,646.3Z" transform="translate(-721.48 -106)"/><path class="cls-18" d="M1093.86,575.14s15.49-6.32,23.75-9.94,12.34-8.26,12.34-8.26,13,25.3,20.71,27.89l7.75,2.58S1123.91,599.91,1093.86,575.14Z" transform="translate(-721.48 -106)"/><path class="cls-19" d="M1093.86,568.74s18.52-6.65,24-8.16,7-4.74,7-5.39,1.81-14,1.35-19.11-3.17-12.1-4.08-9.68-.9,11.49-2.42,12.1-7.4,8.57-9.6,8.82-8.24,1.65-8.24,3.07S1093.86,568.74,1093.86,568.74Z" transform="translate(-721.48 -106)"/><path class="cls-20" d="M1079,577.6s6.93,3.7,8.14-.78,4.93-25,4.93-25a106.84,106.84,0,0,0-12.29,0c-6.83.39-13.27-.54-14.44-.17s-1.17.56-1,2.12S1079,577.6,1079,577.6Z" transform="translate(-721.48 -106)"/><path class="cls-21" d="M930.62,622.57c-7.42-.62-15-1.44-22.25.56-6.6,1.81-10.83,7.6-14.13,13.26a75.84,75.84,0,0,0-8.59,20.33c-1.64,6.86,2,13.13,4.48,19.42q3.52,8.91,7.15,17.78c13,31.81,26.79,63.34,42.88,93.71,4.48,8.44,9.16,16.84,15,24.43,6.46,8.39,13.55,12.8,22.11,18.6,5.73,3.88,11.22,8.11,17.09,11.77a61.09,61.09,0,0,0,18.73,8.12c3.39.75,7.47,1.48,10.94.83,4.09-.76,3.4-.3,3.55-3.61.21-4.9-2.6-11.32-3.47-16.18a178.87,178.87,0,0,1-2.72-22.83c-.83-17.88,3.74-36,2.89-53.61-6,6.05-10,13.58-17.16,18.72-2.78,2-6.62,3.61-9.45,1.7a9.19,9.19,0,0,1-2.47-3c-10.5-17-22.6-42.48-13.83-62.51,8.66-19.79,3.34-35.92,9.87-59.42s11.9-20.9,11.18-47.67-1.93-45.46-1.93-45.46c0,.46-4.39,2.72-4.8,3q-5.76,3.59-11.5,7.21c-4.69,3-9.39,5.94-14,9.1-4.21,2.91-8.78,5.64-11.47,10.08-2.25,3.73-3.6,7.89-5.27,11.88-1.22,2.94-2.71,6.65-5.8,8.09" transform="translate(-721.48 -106)"/><path class="cls-22" d="M950.83,425l-10.59-9.58c-5.29-4.79-5.29-10.23-10.59-9.4s-37.06-4.82-41.6-5-38.58-7-40.47-4-4.92-.76-8-6.05a15.35,15.35,0,0,1-1.89-10.21s17.78,4.91,30.64,3.78,16.26-6.81,22.69-3.78,19.29,1.89,20.43,1.89,10.8-7.57,10.8-7.57-8.91-24.2,3.57-38.2,34.42-31,43.88-33.28,23-10.22,32.67,6.05,20.36,18.91,19.37,42.74,1,34.8-5.47,37.44-6.1,6.43-6.1,6.43l11.57,9.77Z" transform="translate(-721.48 -106)"/><path class="cls-23" d="M929.6,385s-5.56-30.3,6.82-48.24,36.24-30.51,36.24-30.51-10.48,60.95,42.92,78.75C1015.58,385,967.9,402.61,929.6,385Z" transform="translate(-721.48 -106)"/><path class="cls-5" d="M986.15,294.32c-15.4,7.93-18.44,34.64-13.73,52.78,4.93,19,21.71,41.42,40.1,38.68,19.39-2.9,33-32.63,27.45-56.1C1033.82,303.63,1004,285.13,986.15,294.32Z" transform="translate(-721.48 -106)"/><path class="cls-6" d="M991,299.74c-15.74,8.32-17.58,44.9-.91,63.83,7.85,8.91,22.79,17.29,34.54,11.92,15.35-7,19.07-34.63,9.92-53C1025.74,304.78,1003.74,293,991,299.74Z" transform="translate(-721.48 -106)"/><path class="cls-7" d="M1005.84,304.31c-14.56,3.86-22.44,32.77-11.82,50.85,5,8.52,16,17.87,26.75,15.66,14-2.88,21.91-24.3,17.47-40.63C1034,314.5,1017.65,301.19,1005.84,304.31Z" transform="translate(-721.48 -106)"/><path class="cls-18" d="M935.53,378.82s14.69-8,22.49-12.52,11.34-9.59,11.34-9.59,15.71,23.7,23.7,25.4l8,1.71S968.15,400.09,935.53,378.82Z" transform="translate(-721.48 -106)"/><path class="cls-24" d="M879.57,249.35l-10,5s-.18,5.7,1.53,7.23,6.11,9,9.93,9.54,8.59,4.39,8.59,4.39,9,3.44,12.78,1.53,12.31-7.25,16.37-11.45,7.49-6.3,7.49-7.64.77-10.5-5.15-9.35-20.48,13-20.48,13S884,248.79,879.57,249.35Z" transform="translate(-721.48 -106)"/><path class="cls-24" d="M901.41,266.52c5.53,1,8.3,9.31,8.78,10.88,7.44,24-25,59.12-34.16,55.16-6.55-2.82-3.28-26.24,3.62-42C880.11,289.52,891.2,264.72,901.41,266.52Z" transform="translate(-721.48 -106)"/><path class="cls-24" d="M907.15,264.46c-2.09,5.93,11,18.05,25.19,21.75,15.83,4.13,34.45-1.81,35.12-8.2s-15.79-12.92-25.19-15.46C929,259,909.39,258.1,907.15,264.46Z" transform="translate(-721.48 -106)"/><path class="cls-25" d="M922.3,432.67s-3-6.87-6.21-7.67-22.19-2.15-24.21-2.15-17.69.54-22.83,0-17.3-4.32-20.55-5.67-6.33-5.68-6.33-5.68-9.08-5.41-9.08-3.79-1.35,7.57,0,9.47,3.79,8.92,10.55,11.08,12.7,2.88,21.08,4.41,34.88-.72,37.58,0a109.93,109.93,0,0,0,13.25,1.81C916.9,434.48,922.3,432.67,922.3,432.67Z" transform="translate(-721.48 -106)"/><path class="cls-25" d="M880.13,383.51s-6.5-2.87-7.65.46-3.16,6.94-2.56,9.94.2,8.41,3.4,10.41,5.4,4.8,8.81,4,7-10.6,6.4-12S880.13,383.51,880.13,383.51Z" transform="translate(-721.48 -106)"/><path class="cls-26" d="M739,418.4s-2.48-2.52-2.48-4.75-1.24-3.56,0-6.24a17.34,17.34,0,0,1,4.47-5.16s.49,2.48,5,2.48,54.55-9.32,54.55-9.32L804,402.5l-34,11.15s-15.48,5.53-17,4.75S739,418.4,739,418.4Z" transform="translate(-721.48 -106)"/><path class="cls-8" d="M819.27,343.36S773.05,362.9,772,363.43s-8.72,7.13-3.7,9.78,21.4,11.88,22.46,14.52,8.45,12.68,7.66,18.5-.27,9.51-2.91,9.51a18,18,0,0,1-6.08-1.59s-2.12,1.63-3.3,1.59-3.94-1.63-3.94-1.63-2.49,4.6-8.26,2.63L773,414.9a8,8,0,0,1-10.76,2.33c-6.82-3.64,1.84-4.17,1.84-4.17s1.18-6.69-2.89-8-14.16-6.43-14.56-7.48-11.67-14-12.85-16.7-4.86-4-4.07-10.45-.39-8.27,4.33-12.86,14.3-14.95,17.84-16.66S800,306.67,800,306.67Z" transform="translate(-721.48 -106)"/><path class="cls-25" d="M877.39,386s-7.16-7.69-7.58-7.69-20-15.61-21.79-16S808.8,335.88,807,335s-33.95-24.59-37.76-24.88-12.88-7.61-14.34-7.61-8.49-.58-9.07,0-4.69,2.34-3.52,5.56,2.64,7,5.27,6.73,4.1-2,6.44-2S877.39,386,877.39,386Z" transform="translate(-721.48 -106)"/><path class="cls-25" d="M830.76,393.82c1.44,0,5.23-1.26,5.23-3.78s-.86-6.71-3.5-7.68-19.75-4.76-24.44-5.3-25.06-1.8-28.48-2-14.42-1.62-15.14-1.62-2.34,2-2.34,0,2.7-4.69.9-4.69-4.33-.18-5.23,1.26-5.77,6-4.69,7.57,20.92,4.29,21.37,4.76,31.81,3.89,39.2,6.42S830.76,393.82,830.76,393.82Z" transform="translate(-721.48 -106)"/><path class="cls-26" d="M836,413.65s3.33-3.8,4.76-3,3-3.16,3-4.06,2.29-4.81,3.06-7.21-2.34-8.11-2.88-9.55-4.42-8.13-6.18-9.11-7.34,3.16-8.24,3.7-4.69,5.05-4.69,5.05l-3.06,4.32-7.39,1.59v12s9-.29,9.73,0,4,4.62,5,5.34S836,413.65,836,413.65Z" transform="translate(-721.48 -106)"/><path class="cls-26" d="M797.6,401s.66,3.37,3,3.89,3.88,2.32,5.7,2.52,2,2.11,5,1,3.62.3,4-3.57,1.81-11.9-3.23-13.45-6.47-4.66-9.19-3.89-7.11,4-7.11,5.57S797.6,401,797.6,401Z" transform="translate(-721.48 -106)"/><path class="cls-26" d="M769.45,329a26.73,26.73,0,0,0-6.38-43c-12.26-6.48-29.53-2.85-37.48,10.15-6.86,11.21-5.06,26.56,4.91,35.35C742.44,342,760.27,338,769.45,329Z" transform="translate(-721.48 -106)"/><path class="cls-27" d="M894,178s-2.15-5.64-5-5.64-7.57-.2-9.46,0a39.91,39.91,0,0,1-5.55-.09l.34.92s6.64.39,7.18.46,7.32,1.35,7.52,1.49,3.25,3.59,3.52,3.73S894.51,179.14,894,178Z" transform="translate(-721.48 -106)"/><path class="cls-27" d="M906.5,179a3.82,3.82,0,0,1,1.2-5c2.86-2,6.86-4.27,7.9-4.32s2.13-2,4.89-1.51a9.78,9.78,0,0,1,3.33.89l-3.07.41s-4.58,1.72-5.41,2.19S906.5,179,906.5,179Z" transform="translate(-721.48 -106)"/><path class="cls-11" d="M891.05,187s-6.58,2.36-7.51,2.53a14.33,14.33,0,0,1-4.34-.44c-.77-.28-4-3.46-4.39-3.95a6.1,6.1,0,0,1-.79-1.27s2.6-2.36,5.4-2.41S888.86,182.87,891.05,187Z" transform="translate(-721.48 -106)"/><path class="cls-11" d="M911.63,183.5a12.26,12.26,0,0,0,4.11,2.47,8.28,8.28,0,0,0,4.49-.56,18.81,18.81,0,0,0,5-3.92,6.73,6.73,0,0,1,.8-1.16s-2.45-1.91-4.3-1.76-4.77.3-5.57.75A59.69,59.69,0,0,0,911.63,183.5Z" transform="translate(-721.48 -106)"/><path class="cls-28" d="M899.21,205.45s-.36-1.67-.94-2-2.46-1.3-3-.86L893.42,204S899,204.29,899.21,205.45Z" transform="translate(-721.48 -106)"/><path class="cls-28" d="M903.62,204.51s.44-2,1.52-2,3.33,0,3.33,0S904.71,203.42,903.62,204.51Z" transform="translate(-721.48 -106)"/><path class="cls-29" d="M888.29,212.17a5,5,0,0,0,3.69,2c2.53.21,6.22-2,6.22-2l2.1.51,1.37,1s.94-1.37,2-1.52,3.83,1.25,4.56,1a38.8,38.8,0,0,1,4.27-.73,7.92,7.92,0,0,0,1.51-.3s-2.09,5-4.41,6.67-5.06,5.93-6.87,6-6-.36-8.66-2.61-5.87-4.91-5.73-6.14A34.4,34.4,0,0,0,888.29,212.17Z" transform="translate(-721.48 -106)"/><path class="cls-30" d="M849.55,224.84s15.5-8.6,15.91-14.51,3.06-15.5,3.06-19-1.84-7-2.25-9.92-.2-14.15,1-17.21,1.23-10.19,5.1-14.07a7.77,7.77,0,0,0,1.92-8.36s-10.69,13-11.3,15.5-1.5,22-1.5,22-.33,7-.33,10.37a42.9,42.9,0,0,1-.21,7.22C860.56,200.33,853.83,224.66,849.55,224.84Z" transform="translate(-721.48 -106)"/><path class="cls-30" d="M872.8,129.28s-6.2-3.57-10.62,0-8.32,3.83-9.47,7.47-2.49.19-3.16,6.89.29,9.52,0,13.86,3.93,6.65,3.93,6.65,5.65-7.92,8.7-9.25,8.25-2.24,10.21-4.74,11.61-5.9,11.68-9.18S872.8,129.28,872.8,129.28Z" transform="translate(-721.48 -106)"/><path class="cls-31" d="M874.31,141.8s-9.78-10-8.89-12.7,0-8.89,3.91-9.53a40.37,40.37,0,0,0,11.83-4.66c2-1.34-1-7.47,7-6.52s6.89-5.76,15.7-.1,8.63-1.43,16.1,6.81,11.49,5.75,15.52,16.09,8.29,3.52,8.43,14.79.65,19.06-1.41,19.67-4.15,4.74-4.15,4.74S906.61,147,902,146,874.31,141.8,874.31,141.8Z" transform="translate(-721.48 -106)"/><path class="cls-30" d="M880.55,133.44s-3.16,5.71,3.52,10.4,2,4.69,10,8.57,5.76,2.24,11.91,4.07a47.85,47.85,0,0,0,8.9,2s-.36-3.46-5-6.32S902,145.27,895.24,141s-7.66-7.54-11.17-7.54Z" transform="translate(-721.48 -106)"/><path class="cls-30" d="M872.8,134.66s5.37,14.69,6.77,17.75a28.29,28.29,0,0,0,3,5.09s1.58-7.13,1.53-11.42,4.33-9.18,0-12.64S872.8,134.66,872.8,134.66Z" transform="translate(-721.48 -106)"/><path class="cls-30" d="M863.22,141.8c4.94,7.79,8.15,11.83,8.77,15.7a68,68,0,0,0,2,8.37s5.3-7.58,4.49-16,5.1-8.24-1.43-11.1S863.22,141.8,863.22,141.8Z" transform="translate(-721.48 -106)"/><path class="cls-30" d="M879.8,128.14c15.44,12.84,20.69,17.33,28.67,20.8s6.28-3.27,10.29,4.08,6.1,9.26,9.11,10.19l3,.94s.15-4.81-4.59-11.54-3.3-11.83-11.36-12.44-12.58-8.57-17.56-9S879.8,128.14,879.8,128.14Z" transform="translate(-721.48 -106)"/><path class="cls-30" d="M895.24,141S911.48,151.39,914,154s1.68-1.36,1-4.46S895.24,141,895.24,141Z" transform="translate(-721.48 -106)"/><path class="cls-30" d="M911.63,131.19l17.48,26.31s-3.8.24,1.76,6.65,2.71,7,7,8.15,12.44,1.23,12.44,1.23-5.5-1.6-8.56-5.45S936,157.5,936,157.5s-6.67-11.83-12.21-16.52S911.63,131.19,911.63,131.19Z" transform="translate(-721.48 -106)"/><path class="cls-31" d="M871.7,132.16c-1.75-1.78-15.09-6.27-15.09-6.27l7.55-1.38-2-7.59,7.15,2.65L874,110.8l2.25,2.65s3.6,5.51,3.53,7.14,3.08,2.9,0,7.55-3.94,5.91-7,6.52S871.7,132.16,871.7,132.16Z" transform="translate(-721.48 -106)"/><path class="cls-30" d="M927.48,144.83s-.63,1.15,8.95,10.07,13.06,12.74,15.3,13.18,9.59,6.15,1-2.21-3.47,1-11.63-14S927.48,144.83,927.48,144.83Z" transform="translate(-721.48 -106)"/><path class="cls-29" d="M883.45,183.42a2.75,2.75,0,0,0-3.53.57,2.9,2.9,0,0,0,2.05,3.94,2.71,2.71,0,0,0,2.71-2.71A2.51,2.51,0,0,0,883.45,183.42Z" transform="translate(-721.48 -106)"/><path class="cls-29" d="M919.43,180.93a2.63,2.63,0,0,0-3.31.52c-.78,1.21.36,3.45,1.92,3.59a2.52,2.52,0,0,0,2.55-2.47A2.31,2.31,0,0,0,919.43,180.93Z" transform="translate(-721.48 -106)"/><path class="cls-32" d="M890.78,186.52a9,9,0,0,0-.86-2.3c-.28-.14-2-2-2.47-2.19a66.48,66.48,0,0,0-8.11-1.72,5.5,5.5,0,0,0-2.17,1.12c-1.51,1-3.15,2.42-3.15,2.42s3.72-2.2,4.77-2.2a29,29,0,0,1,5.28.52,12.7,12.7,0,0,1,3.34,1.38A14.53,14.53,0,0,1,890.78,186.52Z" transform="translate(-721.48 -106)"/><path class="cls-32" d="M889.07,184.17s-3.05-3-3.05-3.85A4.37,4.37,0,0,0,889.07,184.17Z" transform="translate(-721.48 -106)"/><path class="cls-32" d="M887.74,183s-3-3-3-3.85A4.37,4.37,0,0,0,887.74,183Z" transform="translate(-721.48 -106)"/><path class="cls-32" d="M886.54,182.57s-3-3-3-3.85A4.37,4.37,0,0,0,886.54,182.57Z" transform="translate(-721.48 -106)"/><path class="cls-32" d="M885,182.17s-3-3-3-3.85A4.37,4.37,0,0,0,885,182.17Z" transform="translate(-721.48 -106)"/><path class="cls-32" d="M883.93,182s-3-3-3-3.85A4.37,4.37,0,0,0,883.93,182Z" transform="translate(-721.48 -106)"/><path class="cls-32" d="M882.4,181.73s-3-3-3-3.85A4.39,4.39,0,0,0,882.4,181.73Z" transform="translate(-721.48 -106)"/><path class="cls-32" d="M880.08,181.16a8,8,0,0,1-3.54-1.55,18.64,18.64,0,0,1-1.74-1.69Z" transform="translate(-721.48 -106)"/><path class="cls-32" d="M877.13,182a4.22,4.22,0,0,1-3.11-1.34,4.33,4.33,0,0,1-1.18-2.11l4.6,3.28Z" transform="translate(-721.48 -106)"/><path class="cls-32" d="M878.88,181.21a2.86,2.86,0,0,1-2.52-.26,14.15,14.15,0,0,1-2.36-2.27S877.76,181.41,878.88,181.21Z" transform="translate(-721.48 -106)"/><path class="cls-32" d="M881.87,180.73s-2.59.4-3.26-.2a6.06,6.06,0,0,1-1.18-1.8C877.37,178.59,880.54,181.18,881.87,180.73Z" transform="translate(-721.48 -106)"/><path class="cls-32" d="M877.58,181.44a1.18,1.18,0,0,1-1,.29,17.63,17.63,0,0,1-3.75-.89c-.91-.43-2.58-1.3-2.58-1.3s2.3,5.13,3.76,4.31S876.9,182,876.9,182Z" transform="translate(-721.48 -106)"/><path class="cls-32" d="M911.63,184.13a9.56,9.56,0,0,1,.85-2.31c.29-.14,2-2,2.48-2.18a66.8,66.8,0,0,1,8.11-1.73,5.79,5.79,0,0,1,2.17,1.12c1.51,1,3.15,2.43,3.15,2.43s-3.73-2.21-4.77-2.21a29.07,29.07,0,0,0-5.28.53,12.54,12.54,0,0,0-3.34,1.37A14.5,14.5,0,0,0,911.63,184.13Z" transform="translate(-721.48 -106)"/><path class="cls-32" d="M913.34,181.78s3-3,3-3.86A4.36,4.36,0,0,1,913.34,181.78Z" transform="translate(-721.48 -106)"/><path class="cls-32" d="M914.66,180.58s3.05-3,3.05-3.86A4.37,4.37,0,0,1,914.66,180.58Z" transform="translate(-721.48 -106)"/><path class="cls-32" d="M915.87,180.18s3-3,3-3.86A4.39,4.39,0,0,1,915.87,180.18Z" transform="translate(-721.48 -106)"/><path class="cls-32" d="M917.4,179.78s3.05-3,3.05-3.85A4.37,4.37,0,0,1,917.4,179.78Z" transform="translate(-721.48 -106)"/><path class="cls-32" d="M918.48,179.64s3-3,3-3.85A4.37,4.37,0,0,1,918.48,179.64Z" transform="translate(-721.48 -106)"/><path class="cls-32" d="M920,179.34s3-3,3-3.86A4.36,4.36,0,0,1,920,179.34Z" transform="translate(-721.48 -106)"/><path class="cls-32" d="M922.33,178.76a8,8,0,0,0,3.54-1.54,18.94,18.94,0,0,0,1.73-1.69Z" transform="translate(-721.48 -106)"/><path class="cls-32" d="M925.28,179.64a4.26,4.26,0,0,0,3.11-1.34,4.33,4.33,0,0,0,1.18-2.12l-4.6,3.29Z" transform="translate(-721.48 -106)"/><path class="cls-32" d="M923.53,178.81a2.82,2.82,0,0,0,2.51-.25,14,14,0,0,0,2.37-2.27S924.65,179,923.53,178.81Z" transform="translate(-721.48 -106)"/><path class="cls-32" d="M920.53,178.33s2.6.41,3.27-.2a5.87,5.87,0,0,0,1.17-1.79C925,176.2,921.87,178.78,920.53,178.33Z" transform="translate(-721.48 -106)"/><path class="cls-32" d="M924.83,179a1.2,1.2,0,0,0,1,.3,17.85,17.85,0,0,0,3.75-.9c.91-.42,2.58-1.3,2.58-1.3s-2.3,5.14-3.76,4.32-2.88-1.82-2.88-1.82Z" transform="translate(-721.48 -106)"/></svg>